<?xml version="1.0" encoding="utf-8"?>
<!-- Generator: Adobe Illustrator 16.0.0, SVG Export Plug-In . SVG Version: 6.00 Build 0)  -->
<!DOCTYPE svg PUBLIC "-//W3C//DTD SVG 1.1//EN" "http://www.w3.org/Graphics/SVG/1.1/DTD/svg11.dtd">
<svg version="1.1" id="Layer_1" xmlns="http://www.w3.org/2000/svg" xmlns:xlink="http://www.w3.org/1999/xlink" x="0px" y="0px"
	 width="100px" height="100px" viewBox="0 0 100 100" enable-background="new 0 0 100 100" xml:space="preserve">
<g>
	<path fill="#F9F9FA" d="M68.17,54.347c-2.312-0.957-6.711-1.439-13.198-1.439H42.838c-7.071,0-11.629,0.555-13.68,1.652
		c-2.06,1.096-3.086,3.238-3.086,6.426c0,3.714,0.96,6.144,2.89,7.311c1.925,1.157,6.545,1.736,13.876,1.736h12.134
		c6.585,0,11.006-0.471,13.272-1.416c2.267-0.941,3.39-2.606,3.39-4.988V59.36C71.636,56.981,70.484,55.305,68.17,54.347z"/>
	<path fill="#F9F9FA" d="M92.116,24.039L28.425,5.8c-3.774-1.083-7.753,1.122-8.83,4.9L2.726,69.595
		c-1.083,3.78,1.123,7.752,4.901,8.835l63.685,18.24c3.778,1.088,7.758-1.125,8.836-4.897l16.87-58.896
		C98.1,29.097,95.894,25.122,92.116,24.039z M79.828,76.571h-7.709v-6.444c-1.316,2.565-3.293,4.398-5.922,5.478
		c-2.633,1.077-6.62,1.619-11.946,1.619H40.767c-8.668,0-14.753-1.171-18.257-3.524c-3.503-2.352-5.251-6.463-5.251-12.345
		c0-5.537,1.743-9.438,5.226-11.69c3.489-2.262,9.513-3.393,18.088-3.393H54.78c4.237,0,7.754,0.466,10.55,1.393
		c2.788,0.93,5.056,2.401,6.789,4.409v-6.675c0-4.15-1.152-7.017-3.44-8.608c-2.294-1.595-6.607-2.394-12.934-2.394H43.703
		c-6.196,0-10.162,0.447-11.897,1.342c-1.732,0.894-2.6,2.666-2.6,5.298v1.429h-8.481v-1.344c0-4.945,1.704-8.526,5.107-10.736
		c3.407-2.215,8.946-3.324,16.618-3.324h14.596c7.839,0,13.591,1.446,17.268,4.345c3.674,2.888,5.516,7.425,5.516,13.622V76.571
		L79.828,76.571z"/>
</g>
</svg>
