<?xml version="1.0" encoding="utf-8"?>
<!-- Generator: Adobe Illustrator 16.0.3, SVG Export Plug-In . SVG Version: 6.00 Build 0)  -->
<!DOCTYPE svg PUBLIC "-//W3C//DTD SVG 1.1//EN" "http://www.w3.org/Graphics/SVG/1.1/DTD/svg11.dtd">
<svg version="1.1" id="Layer_1" xmlns="http://www.w3.org/2000/svg" xmlns:xlink="http://www.w3.org/1999/xlink" x="0px" y="0px"
	 width="1493.548px" height="338.71px" viewBox="0 0 1493.548 338.71" enable-background="new 0 0 1493.548 338.71"
	 xml:space="preserve">
<g>
	<g>
		<g>
			<path fill="#FFFFFF" d="M195.197,145.789c-6.357-2.628-18.457-3.958-36.3-3.958h-33.37c-19.448,0-31.985,1.525-37.623,4.546
				c-5.666,3.015-8.488,8.905-8.488,17.674c0,10.212,2.64,16.893,7.947,20.105c5.295,3.181,18.004,4.773,38.164,4.773h33.37
				c18.112,0,30.269-1.293,36.503-3.893c6.233-2.59,9.325-7.167,9.325-13.721V159.58
				C204.726,153.038,201.561,148.426,195.197,145.789z"/>
			<path fill="#FFFFFF" d="M261.056,62.436L85.886,12.275C75.507,9.3,64.564,15.362,61.602,25.752L15.209,187.727
				c-2.981,10.395,3.089,21.323,13.479,24.298L203.84,262.19c10.39,2.993,21.335-3.092,24.298-13.468l46.399-161.981
				C277.51,76.347,271.443,65.417,261.056,62.436z M227.26,206.914h-21.204v-17.722c-3.621,7.055-9.055,12.095-16.285,15.065
				c-7.242,2.96-18.207,4.45-32.857,4.45h-37.084c-23.839,0-40.574-3.219-50.21-9.692c-9.634-6.465-14.442-17.772-14.442-33.951
				c0-15.227,4.794-25.954,14.372-32.151c9.594-6.221,26.163-9.332,49.746-9.332h39.076c11.652,0,21.326,1.281,29.015,3.83
				c7.668,2.558,13.903,6.605,18.67,12.125v-18.358c0-11.416-3.167-19.3-9.462-23.675c-6.31-4.387-18.171-6.584-35.571-6.584
				h-33.119c-17.042,0-27.947,1.229-32.721,3.691c-4.762,2.459-7.148,7.333-7.148,14.571v3.933H64.709v-3.696
				c0-13.601,4.685-23.45,14.046-29.528c9.369-6.092,24.605-9.142,45.704-9.142h40.141c21.556,0,37.377,3.977,47.491,11.95
				c10.104,7.942,15.168,20.421,15.168,37.464V206.914z"/>
		</g>
		<path fill="#FFFFFF" d="M440.791,119.118c-0.19-11.222-3.01-18.817-8.472-22.783c-5.486-3.961-17.672-5.919-36.581-5.919h-32.571
			c-16.344,0-27.985,2.352-34.918,7.088c-6.928,4.712-10.402,12.414-10.402,23.15v31.138c0,14.128,3.188,23.857,9.554,29.151
			c6.345,5.34,18.438,7.986,36.288,7.986h33.131c17.478,0,29.444-2.267,35.89-6.811c6.441-4.563,9.664-12.662,9.664-24.327v-1.537
			h20.944v3.574c0,17.099-4.886,29.521-14.662,37.261c-9.749,7.748-25.301,11.617-46.686,11.617h-39.867
			c-22.527,0-39.235-4.249-50.145-12.737c-10.913-8.525-16.356-21.581-16.356-39.199v-33.958c0-17.688,5.427-30.779,16.295-39.298
			c10.849-8.519,27.601-12.768,50.206-12.768h33.124c23.736,0,40.689,3.495,50.869,10.46c10.142,6.991,15.229,18.473,15.229,34.466
			v3.443H440.791z"/>
		<path fill="#FFFFFF" d="M689.582,119.118c-0.19-11.222-3.015-18.817-8.493-22.783c-5.469-3.961-17.66-5.919-36.545-5.919h-32.585
			c-16.349,0-27.989,2.352-34.934,7.088c-6.917,4.712-10.378,12.414-10.378,23.15v31.138c0,14.128,3.176,23.857,9.535,29.151
			c6.359,5.34,18.45,7.986,36.295,7.986h33.107c17.487,0,29.46-2.267,35.92-6.811c6.434-4.563,9.671-12.662,9.671-24.327v-1.537
			h20.918v3.574c0,17.099-4.879,29.521-14.634,37.261c-9.758,7.748-25.317,11.617-46.702,11.617h-39.872
			c-22.523,0-39.242-4.249-50.14-12.737c-10.913-8.525-16.36-21.581-16.36-39.199v-33.958c0-17.688,5.427-30.779,16.285-39.298
			c10.873-8.519,27.608-12.768,50.215-12.768h33.119c23.762,0,40.706,3.495,50.873,10.46c10.14,6.991,15.22,18.473,15.22,34.466
			v3.443H689.582z"/>
		<path fill="#FFFFFF" d="M897.236,70.749c26.237,0,44.493,4.689,54.794,14.044c10.277,9.357,15.412,25.781,15.412,49.262
			c0,2.825-0.015,4.938-0.038,6.375c-0.056,1.455-0.112,2.766-0.206,3.965l-152.497,0.131v7.266c0,14.217,3.588,24.125,10.76,29.736
			c7.135,5.622,19.596,8.423,37.331,8.423h36.318c15.449,0,26.86-1.841,34.229-5.556c7.393-3.691,11.061-9.416,11.061-17.164v-1.394
			h23.043v3.448c0,12.927-5.359,22.745-16.087,29.42c-10.718,6.681-26.415,10.002-47.097,10.002h-41.716
			c-25.09,0-43.021-4.45-53.848-13.389c-10.83-8.952-16.241-23.787-16.241-44.549v-21.431c0-21.115,5.378-36.152,16.087-45.121
			c10.741-8.971,28.739-13.47,54.002-13.47H897.236z M814.701,125.107h129.427v-3.176c0-12.013-3.167-20.249-9.51-24.76
			c-6.371-4.495-19.005-6.755-37.911-6.755h-34.562c-17.581,0-29.863,2.604-36.891,7.83
			C818.229,103.481,814.701,112.445,814.701,125.107z"/>
		<path fill="#FFFFFF" d="M1152.248,208.708h-37.091c-24.022,0-41.145-4.521-51.394-13.58c-10.24-9.069-15.374-24.324-15.374-45.758
			v-21.062c0-20.588,5.194-35.337,15.575-44.212c10.372-8.903,27.441-13.348,51.192-13.348h42.801
			c10.409,0,19.108,1.506,26.079,4.523c6.989,3.033,12.854,7.788,17.632,14.248V16.894h21.455v190.021h-19.342V184.99
			c-3.79,8.601-9.473,14.682-17,18.293C1179.207,206.909,1167.712,208.708,1152.248,208.708z M1151.729,188.93
			c20.208,0,33.648-2.843,40.263-8.563c6.623-5.696,9.936-16.773,9.936-33.302v-15.943c0-16.004-3.331-26.786-9.992-32.36
			c-6.675-5.575-20.082-8.346-40.206-8.346h-31.124c-20.143,0-33.54,2.771-40.221,8.346c-6.666,5.574-9.996,16.355-9.996,32.36
			v15.943c0,16.529,3.307,27.606,9.931,33.302c6.619,5.72,20.054,8.563,40.286,8.563H1151.729z"/>
		<path fill="#FFFFFF" d="M1373.152,208.708c-24.026,0-41.157-4.521-51.388-13.58c-10.26-9.069-15.37-24.324-15.37-45.758v-21.062
			c0-20.588,5.181-35.337,15.562-44.212c10.386-8.903,27.438-13.348,51.196-13.348h47.96c23.764,0,40.82,4.445,51.191,13.348
			c10.366,8.875,15.571,23.624,15.571,44.212v21.062c0,21.434-5.111,36.688-15.365,45.758c-10.245,9.06-27.386,13.58-51.397,13.58
			H1373.152z M1378.854,188.93h36.286c20.316,0,33.816-2.843,40.487-8.563c6.656-5.696,9.997-16.773,9.997-33.302v-15.943
			c0-16.004-3.359-26.786-10.067-32.36c-6.708-5.575-20.171-8.346-40.417-8.346h-36.286c-20.144,0-33.536,2.771-40.221,8.346
			c-6.647,5.574-9.997,16.355-9.997,32.36v15.943c0,16.529,3.317,27.606,9.96,33.302
			C1345.2,186.087,1358.616,188.93,1378.854,188.93z"/>
	</g>
	<g>
		<path fill="#FFFFFF" d="M544.748,267.483h6.271v5.172h0.157c0.857-3.134,4.544-6.268,9.09-6.268
			c9.95,0,13.711,8.858,13.711,21.313c0,9.562-2.817,22.889-13.711,22.889c-3.764,0-7.289-2.276-8.781-5.884h-0.154v18.578h-6.582
			V267.483z M559.403,304.945c6.108,0,7.678-6.428,7.678-17.244c0-9.251-1.569-15.674-7.678-15.674
			c-7.289,0-8.465,6.896-8.465,16.457C550.938,296.64,552.346,304.945,559.403,304.945z"/>
		<path fill="#FFFFFF" d="M582.332,267.483h6.582v6.264h0.162c1.876-3.987,4.387-7.359,9.088-7.359c1.331,0,2.274,0.154,2.904,0.468
			v6.423c-0.63-0.075-1.415-0.31-3.535-0.31c-3.286,0-8.619,2.975-8.619,9.959v26.557h-6.582V267.483z"/>
		<path fill="#FFFFFF" d="M611.715,289.267c0,6.432,0,16.146,8.073,16.146c6.271,0,7.13-6.586,7.13-9.715h6.584
			c0,4.469-2.666,14.892-14.105,14.892c-10.271,0-14.58-7.135-14.58-21.558c0-10.498,2.042-22.645,14.971-22.645
			c12.854,0,14.028,11.21,14.028,20.223v2.656H611.715z M626.918,284.095v-2.272c0-4.703-1.49-10.268-7.284-10.268
			c-6.898,0-7.68,8.469-7.68,10.976v1.564H626.918z"/>
		<path fill="#FFFFFF" d="M641.006,272.22h-6.113v-5.182h6.113v-4.937c0-6.343,2.736-9.637,9.088-9.637h4.778v5.641h-3.057
			c-2.82,0-4.232,1.101-4.232,3.996v4.937h7.211v5.182h-7.211v36.824h-6.577V272.22z"/>
		<path fill="#FFFFFF" d="M667.926,289.267c0,6.432,0,16.146,8.073,16.146c6.263,0,7.13-6.586,7.13-9.715h6.586
			c0,4.469-2.668,14.892-14.114,14.892c-10.264,0-14.573-7.135-14.573-21.558c0-10.498,2.038-22.645,14.971-22.645
			c12.854,0,14.028,11.21,14.028,20.223v2.656H667.926z M683.129,284.095v-2.272c0-4.703-1.49-10.268-7.289-10.268
			c-6.891,0-7.682,8.469-7.682,10.976v1.564H683.129z"/>
		<path fill="#FFFFFF" d="M697.175,267.483h6.584v6.264h0.159c1.876-3.987,4.39-7.359,9.09-7.359c1.328,0,2.274,0.154,2.902,0.468
			v6.423c-0.627-0.075-1.412-0.31-3.532-0.31c-3.289,0-8.62,2.975-8.62,9.959v26.557h-6.584V267.483z"/>
		<path fill="#FFFFFF" d="M722.216,267.483h6.582v6.264h0.154c1.883-3.987,4.39-7.359,9.09-7.359c1.328,0,2.272,0.154,2.902,0.468
			v6.423c-0.63-0.075-1.412-0.31-3.534-0.31c-3.286,0-8.612,2.975-8.612,9.959v26.557h-6.582V267.483z"/>
		<path fill="#FFFFFF" d="M751.784,289.267c0,6.432,0,16.146,8.071,16.146c6.263,0,7.13-6.586,7.13-9.715h6.586
			c0,4.469-2.665,14.892-14.114,14.892c-10.263,0-14.571-7.135-14.571-21.558c0-10.498,2.036-22.645,14.969-22.645
			c12.854,0,14.03,11.21,14.03,20.223v2.656H751.784z M766.985,284.095v-2.272c0-4.703-1.49-10.268-7.289-10.268
			c-6.896,0-7.683,8.469-7.683,10.976v1.564H766.985z"/>
		<path fill="#FFFFFF" d="M809.646,309.484h-6.272v-5.172h-0.15c-0.861,3.134-4.548,6.277-9.097,6.277
			c-9.95,0-13.711-8.858-13.711-22.105c0-8.774,1.414-22.097,13.247-22.097c3.757,0,7.753,2.267,9.242,5.874h0.159v-18.733h6.582
			V309.484z M794.993,304.945c7.289,0,8.465-6.9,8.465-16.461c0-8.146-1.41-16.457-8.465-16.457c-6.113,0-7.682,6.423-7.682,16.457
			C787.312,298.518,788.88,304.945,794.993,304.945z"/>
		<path fill="#FFFFFF" d="M878.409,267.483h6.277v4.938h0.154c1.729-3.846,6.109-6.033,10.189-6.033
			c11.046,0,11.046,8.38,11.046,13.322v29.774h-6.577v-28.992c0-3.218-0.239-8.465-6.197-8.465c-3.519,0-8.301,2.352-8.301,8.465
			v28.992h-6.592V267.483z"/>
		<path fill="#FFFFFF" d="M922.387,289.267c0,6.432,0,16.146,8.071,16.146c6.272,0,7.135-6.586,7.135-9.715h6.582
			c0,4.469-2.666,14.892-14.105,14.892c-10.268,0-14.582-7.135-14.582-21.558c0-10.498,2.047-22.645,14.971-22.645
			c12.859,0,14.03,11.21,14.03,20.223v2.656H922.387z M937.593,284.095v-2.272c0-4.703-1.489-10.268-7.284-10.268
			c-6.896,0-7.683,8.469-7.683,10.976v1.564H937.593z"/>
		<path fill="#FFFFFF" d="M949.435,280.174c0-9.562,4.071-13.786,14.105-13.786c12.774,0,12.774,7.683,12.774,12.063v23.436
			c0,1.725,0,3.373,2.033,3.373c0.866,0,1.255-0.159,1.573-0.394v4.703c-0.473,0.075-2.196,0.394-3.846,0.394
			c-2.501,0-5.64,0-5.958-5.415h-0.155c-2.112,3.767-6.188,6.043-10.104,6.043c-7.833,0-11.444-4.708-11.444-12.231
			c0-5.874,2.506-9.954,7.917-11.599l8.854-2.665c4.777-1.49,4.777-2.82,4.777-6.343c0-3.921-2.347-6.197-6.736-6.197
			c-7.214,0-7.214,6.74-7.214,8.23v0.389H949.435z M969.728,286.61c-2.421,2.581-8.226,3.129-11.205,4.933
			c-2.117,1.33-3.208,2.979-3.208,6.666c0,4.226,1.489,7.204,5.953,7.204c4.306,0,8.46-3.682,8.46-7.991V286.61z"/>
		<path fill="#FFFFFF" d="M986.508,267.483h6.586v6.264h0.155c1.883-3.987,4.389-7.359,9.088-7.359c1.335,0,2.276,0.154,2.899,0.468
			v6.423c-0.623-0.075-1.415-0.31-3.522-0.31c-3.294,0-8.62,2.975-8.62,9.959v26.557h-6.586V267.483z"/>
		<path fill="#FFFFFF" d="M1029.614,279.785c0-5.326-1.405-8.23-6.188-8.23c-2.122,0-6.82,0.557-6.82,6.436
			c0,4.938,5.167,5.875,10.343,7.594c5.097,1.725,10.269,3.527,10.269,11.838c0,8.849-5.72,13.168-13.562,13.168
			c-14.26,0-14.419-10.587-14.419-14.892h6.587c0,5.092,1.41,9.715,7.832,9.715c2.122,0,6.976-1.021,6.976-6.975
			c0-5.645-5.172-6.82-10.259-8.545c-5.098-1.719-10.349-3.208-10.349-11.903c0-7.837,6.108-11.603,13.402-11.603
			c12.227,0,12.699,8.465,12.774,13.397H1029.614z"/>
		<path fill="#FFFFFF" d="M1043.489,253.528h6.591v18.733h0.15c1.724-3.448,6.348-5.874,10.113-5.874
			c10.808,0,10.808,8.38,10.808,13.322v29.774h-6.572v-28.992c0-3.218-0.239-8.465-6.193-8.465c-3.527,0-8.306,2.352-8.306,8.465
			v28.992h-6.591V253.528z"/>
		<path fill="#FFFFFF" d="M1096.531,266.388c12.151,0,15.126,10.264,15.126,22.097c0,11.832-3.054,22.105-15.126,22.105
			c-12.146,0-15.116-10.273-15.116-22.105C1081.415,276.651,1084.464,266.388,1096.531,266.388z M1104.762,288.484
			c0-9.093-1.33-16.93-8.385-16.93c-6.661,0-8.076,7.837-8.076,16.93c0,9.092,1.34,16.929,8.076,16.929
			C1103.356,305.413,1104.762,297.576,1104.762,288.484z"/>
		<path fill="#FFFFFF" d="M1120.549,267.483h6.586v6.264h0.154c1.879-3.987,4.395-7.359,9.093-7.359c1.33,0,2.271,0.154,2.895,0.468
			v6.423c-0.623-0.075-1.414-0.31-3.522-0.31c-3.288,0-8.619,2.975-8.619,9.959v26.557h-6.586V267.483z"/>
		<path fill="#FFFFFF" d="M1149.236,289.267c0,6.432,0,16.146,8.071,16.146c6.268,0,7.129-6.586,7.129-9.715h6.582
			c0,4.469-2.66,14.892-14.104,14.892c-10.259,0-14.573-7.135-14.573-21.558c0-10.498,2.037-22.645,14.967-22.645
			c12.854,0,14.029,11.21,14.029,20.223v2.656H1149.236z M1164.437,284.095v-2.272c0-4.703-1.484-10.268-7.288-10.268
			c-6.896,0-7.679,8.469-7.679,10.976v1.564H1164.437z"/>
		<path fill="#FFFFFF" d="M1206.578,279.696c4.343,0,7.884,3.541,7.884,7.884c0,4.338-3.541,7.884-7.884,7.884
			c-4.338,0-7.879-3.546-7.879-7.884C1198.699,283.237,1202.24,279.696,1206.578,279.696z"/>
		<path fill="#FFFFFF" d="M842.602,279.696c4.338,0,7.879,3.541,7.879,7.884c0,4.338-3.541,7.884-7.879,7.884
			c-4.343,0-7.889-3.546-7.889-7.884C834.713,283.237,838.259,279.696,842.602,279.696z"/>
		<path fill="#FFFFFF" d="M1261.784,279.785c0-5.326-1.41-8.23-6.188-8.23c-2.122,0-6.821,0.557-6.821,6.436
			c0,4.938,5.172,5.875,10.344,7.594c5.097,1.725,10.269,3.527,10.269,11.838c0,8.849-5.72,13.168-13.557,13.168
			c-14.27,0-14.424-10.587-14.424-14.892h6.586c0,5.092,1.405,9.715,7.838,9.715c2.117,0,6.97-1.021,6.97-6.975
			c0-5.645-5.171-6.82-10.259-8.545c-5.102-1.719-10.353-3.208-10.353-11.903c0-7.837,6.113-11.603,13.407-11.603
			c12.227,0,12.689,8.465,12.77,13.397H1261.784z"/>
		<path fill="#FFFFFF" d="M1282.71,289.267c0,6.432,0,16.146,8.076,16.146c6.272,0,7.134-6.586,7.134-9.715h6.582
			c0,4.469-2.661,14.892-14.104,14.892c-10.269,0-14.573-7.135-14.573-21.558c0-10.498,2.032-22.645,14.962-22.645
			c12.85,0,14.025,11.21,14.025,20.223v2.656H1282.71z M1297.92,284.095v-2.272c0-4.703-1.489-10.268-7.284-10.268
			c-6.9,0-7.687,8.469-7.687,10.976v1.564H1297.92z"/>
		<path fill="#FFFFFF" d="M1312.704,267.483h6.587v6.264h0.159c1.878-3.987,4.385-7.359,9.083-7.359c1.34,0,2.276,0.154,2.904,0.468
			v6.423c-0.628-0.075-1.41-0.31-3.522-0.31c-3.293,0-8.624,2.975-8.624,9.959v26.557h-6.587V267.483z"/>
		<path fill="#FFFFFF" d="M1335.63,267.483h7.21l7.832,33.7h0.154l7.837-33.7h7.215l-11.365,42.001h-7.522L1335.63,267.483z"/>
		<path fill="#FFFFFF" d="M1373.879,253.528h6.581v7.528h-6.581V253.528z M1373.879,267.483h6.581v42.001h-6.581V267.483z"/>
		<path fill="#FFFFFF" d="M1411.973,280.258c0-4.075-1.645-8.703-6.661-8.703c-4.071,0-8.227,2.042-8.227,17.402
			c0,5.485,0.075,16.456,7.987,16.456c5.645,0,6.9-5.958,6.9-10.502h6.581c0,6.661-3.297,15.679-13.795,15.679
			c-10.264,0-14.573-7.135-14.573-21.558c0-10.498,2.037-22.645,14.971-22.645c11.436,0,13.397,9.013,13.397,13.87H1411.973z"/>
		<path fill="#FFFFFF" d="M1431.174,289.267c0,6.432,0,16.146,8.071,16.146c6.272,0,7.135-6.586,7.135-9.715h6.582
			c0,4.469-2.666,14.892-14.105,14.892c-10.264,0-14.573-7.135-14.573-21.558c0-10.498,2.038-22.645,14.962-22.645
			c12.859,0,14.03,11.21,14.03,20.223v2.656H1431.174z M1446.38,284.095v-2.272c0-4.703-1.485-10.268-7.289-10.268
			c-6.891,0-7.678,8.469-7.678,10.976v1.564H1446.38z"/>
		<path fill="#FFFFFF" d="M1478.834,279.785c0-5.326-1.41-8.23-6.193-8.23c-2.112,0-6.82,0.557-6.82,6.436
			c0,4.938,5.177,5.875,10.348,7.594c5.092,1.725,10.269,3.527,10.269,11.838c0,8.849-5.725,13.168-13.557,13.168
			c-14.27,0-14.424-10.587-14.424-14.892h6.587c0,5.092,1.405,9.715,7.837,9.715c2.112,0,6.975-1.021,6.975-6.975
			c0-5.645-5.176-6.82-10.272-8.545c-5.092-1.719-10.344-3.208-10.344-11.903c0-7.837,6.113-11.603,13.402-11.603
			c12.227,0,12.7,8.465,12.774,13.397H1478.834z"/>
	</g>
</g>
</svg>
